# xmcd
# 
# Track frame offsets:
#     150
#     22655
#     44080
#     63752
#     80390
#     103602
#     122357
#     142947
#     164617
#     182137
#     204105
#     227742
# 
# Disc length: 3355
# 
# Revision: 16
# Processed by: cddbd v1.5.2PL0 Copyright (c) Steve Scherf et al.
# Submitted via: BonkEnc v1.0.8
# 
DISCID=900d190c
DTITLE=The Jimmy Rogers All-Stars - Blues Blues Blues
DYEAR=1999
DGENRE=Blues
TTITLE0=Blow Wind Blow (featuring Jeff Healey)
TTITLE1=Blues All Day Long (featuring Eric Clapton)
TTITLE2=Trouble No More (featuring Mick Jagger and Keith Richards)
TTITLE3=Bright Lights Big City (featuring Taj Mahal)
TTITLE4=Ev'ry Day I Have The Blues (featuring Lowell Fuson)
TTITLE5=Sweet Home Chicago (featuring Stephen Stills)
TTITLE6=Don't Start Me To Talkin' (featuring Mick Jagger and Keith Richards)
TTITLE7=That's All Right (featuring Eric Clapton)
TTITLE8=Ludella (featuring Taj Mahal)
TTITLE9=Goin' Away Baby (featuring Mick Jagger and Keith Richards)
TTITLE10=Worried Life Blues (featuring Stephen Stills)
TTITLE11=Gonna Shoot You Right Down (Boom Boom) (featuring Jimmy Page, Robert Plant and Eric Clapton)
EXTD=
EXTT0=
EXTT1=
EXTT2=
EXTT3=
EXTT4=
EXTT5=
EXTT6=
EXTT7=
EXTT8=
EXTT9=
EXTT10=
EXTT11=
PLAYORDER=
